<svg xmlns="http://www.w3.org/2000/svg" xmlns:xlink="http://www.w3.org/1999/xlink" width="500" zoomAndPan="magnify" viewBox="0 0 375 374.999991" height="500" preserveAspectRatio="xMidYMid meet" version="1.0"><defs><g/><clipPath id="5454f142f4"><path d="M 147.773438 101.390625 L 227.273438 101.390625 L 227.273438 195.890625 L 147.773438 195.890625 Z M 147.773438 101.390625 " clip-rule="nonzero"/></clipPath></defs><g clip-path="url(#5454f142f4)"><path fill="#516beb" d="M 190.621094 103.121094 L 215.554688 128.054688 C 223.050781 135.550781 227.175781 145.511719 227.175781 156.109375 C 227.175781 166.703125 223.050781 176.667969 215.554688 184.160156 C 208.0625 191.652344 198.101562 195.78125 187.503906 195.78125 C 176.90625 195.78125 166.945312 191.65625 159.453125 184.164062 C 151.957031 176.671875 147.832031 166.707031 147.832031 156.109375 C 147.832031 145.515625 151.957031 135.550781 159.453125 128.058594 C 160.277344 127.230469 161.398438 126.769531 162.570312 126.769531 C 163.738281 126.769531 164.859375 127.234375 165.6875 128.058594 L 178.152344 140.527344 C 179.875 142.246094 179.875 145.039062 178.152344 146.761719 C 172.996094 151.917969 172.996094 160.304688 178.152344 165.460938 C 183.308594 170.621094 191.699219 170.621094 196.855469 165.460938 C 199.355469 162.964844 200.726562 159.644531 200.726562 156.113281 C 200.726562 152.582031 199.351562 149.257812 196.855469 146.761719 L 184.386719 134.296875 C 182.667969 132.574219 182.667969 129.78125 184.386719 128.058594 C 186.109375 126.339844 188.898438 126.339844 190.621094 128.058594 L 203.089844 140.527344 C 207.253906 144.691406 209.546875 150.226562 209.546875 156.113281 C 209.546875 162 207.253906 167.535156 203.089844 171.699219 C 194.496094 180.289062 180.511719 180.289062 171.921875 171.699219 C 164.394531 164.171875 163.457031 152.507812 169.117188 143.957031 L 162.789062 137.628906 C 158.800781 142.933594 156.644531 149.355469 156.644531 156.109375 C 156.644531 164.351562 159.855469 172.101562 165.683594 177.929688 C 171.511719 183.757812 179.261719 186.964844 187.5 186.964844 C 195.742188 186.964844 203.492188 183.757812 209.320312 177.929688 C 215.148438 172.101562 218.359375 164.351562 218.359375 156.109375 C 218.359375 147.871094 215.148438 140.117188 209.320312 134.289062 L 184.386719 109.355469 C 182.664062 107.636719 182.664062 104.84375 184.386719 103.121094 C 186.109375 101.398438 188.898438 101.398438 190.621094 103.121094 Z M 175.898438 123.03125 C 176.179688 122.972656 176.453125 122.890625 176.722656 122.777344 C 176.988281 122.667969 177.242188 122.53125 177.484375 122.375 C 177.605469 122.292969 177.722656 122.207031 177.828125 122.117188 C 177.941406 122.023438 178.050781 121.925781 178.152344 121.824219 C 178.253906 121.726562 178.351562 121.613281 178.441406 121.503906 C 178.535156 121.394531 178.621094 121.273438 178.699219 121.15625 C 178.855469 120.917969 178.996094 120.660156 179.101562 120.394531 C 179.210938 120.125 179.296875 119.851562 179.355469 119.570312 C 179.382812 119.429688 179.402344 119.285156 179.421875 119.140625 C 179.4375 119 179.441406 118.851562 179.441406 118.707031 C 179.441406 117.546875 178.96875 116.40625 178.152344 115.589844 C 177.328125 114.769531 176.195312 114.296875 175.035156 114.296875 C 174.890625 114.296875 174.746094 114.304688 174.601562 114.320312 C 174.457031 114.335938 174.316406 114.355469 174.175781 114.382812 C 173.890625 114.441406 173.613281 114.523438 173.347656 114.636719 C 173.082031 114.746094 172.828125 114.882812 172.585938 115.039062 C 172.46875 115.121094 172.351562 115.207031 172.238281 115.296875 C 172.128906 115.386719 172.019531 115.488281 171.917969 115.589844 C 171.816406 115.691406 171.71875 115.796875 171.625 115.910156 C 171.539062 116.019531 171.449219 116.136719 171.371094 116.257812 C 171.214844 116.496094 171.074219 116.75 170.96875 117.019531 C 170.855469 117.285156 170.769531 117.5625 170.710938 117.839844 C 170.683594 117.980469 170.664062 118.125 170.648438 118.269531 C 170.621094 118.554688 170.621094 118.851562 170.648438 119.136719 C 170.664062 119.277344 170.683594 119.421875 170.710938 119.566406 C 170.769531 119.847656 170.851562 120.121094 170.96875 120.390625 C 171.078125 120.65625 171.214844 120.914062 171.371094 121.148438 C 171.449219 121.269531 171.539062 121.390625 171.625 121.5 C 171.71875 121.609375 171.816406 121.722656 171.917969 121.820312 C 172.019531 121.921875 172.128906 122.019531 172.238281 122.113281 C 172.351562 122.203125 172.46875 122.289062 172.585938 122.371094 C 172.828125 122.527344 173.082031 122.664062 173.347656 122.773438 C 173.613281 122.886719 173.890625 122.96875 174.175781 123.027344 C 174.316406 123.054688 174.457031 123.074219 174.601562 123.089844 C 174.746094 123.105469 174.890625 123.113281 175.035156 123.113281 C 175.179688 123.113281 175.324219 123.105469 175.46875 123.089844 C 175.609375 123.078125 175.753906 123.058594 175.898438 123.03125 Z M 175.898438 123.03125 " fill-opacity="1" fill-rule="nonzero"/></g><g fill="#516beb" fill-opacity="1"><g transform="translate(164.315223, 240.609726)"><g><path d="M 8.625 8.515625 C 5.96875 8.515625 3.925781 8.050781 2.5 7.125 C 1.070312 6.207031 0.191406 4.78125 -0.140625 2.84375 L 5.53125 2.25 C 5.882812 3.9375 7.140625 4.78125 9.296875 4.78125 C 10.753906 4.78125 11.890625 4.382812 12.703125 3.59375 C 13.523438 2.8125 14.160156 1.429688 14.609375 -0.546875 C 14.878906 -1.828125 15.085938 -2.988281 15.234375 -4.03125 L 15.1875 -4.03125 C 14.351562 -2.84375 13.617188 -1.988281 12.984375 -1.46875 C 12.347656 -0.945312 11.632812 -0.546875 10.84375 -0.265625 C 10.050781 0.015625 9.140625 0.15625 8.109375 0.15625 C 6.035156 0.15625 4.378906 -0.507812 3.140625 -1.84375 C 1.910156 -3.175781 1.296875 -4.9375 1.296875 -7.125 C 1.296875 -9.8125 1.71875 -12.382812 2.5625 -14.84375 C 3.414062 -17.300781 4.585938 -19.113281 6.078125 -20.28125 C 7.566406 -21.457031 9.453125 -22.046875 11.734375 -22.046875 C 13.304688 -22.046875 14.660156 -21.671875 15.796875 -20.921875 C 16.929688 -20.171875 17.675781 -19.15625 18.03125 -17.875 L 18.078125 -17.875 C 18.160156 -18.257812 18.320312 -18.957031 18.5625 -19.96875 C 18.8125 -20.988281 18.96875 -21.550781 19.03125 -21.65625 L 24.34375 -21.65625 L 23.96875 -20 L 23.359375 -17.078125 L 20.0625 -0.203125 C 19.4375 2.910156 18.222656 5.140625 16.421875 6.484375 C 14.617188 7.835938 12.019531 8.515625 8.625 8.515625 Z M 16.9375 -13.734375 C 16.9375 -15.117188 16.585938 -16.207031 15.890625 -17 C 15.203125 -17.800781 14.226562 -18.203125 12.96875 -18.203125 C 11.957031 -18.203125 11.117188 -17.988281 10.453125 -17.5625 C 9.796875 -17.132812 9.238281 -16.441406 8.78125 -15.484375 C 8.320312 -14.523438 7.941406 -13.269531 7.640625 -11.71875 C 7.335938 -10.164062 7.1875 -8.898438 7.1875 -7.921875 C 7.1875 -5.265625 8.34375 -3.9375 10.65625 -3.9375 C 11.84375 -3.9375 12.921875 -4.382812 13.890625 -5.28125 C 14.867188 -6.175781 15.617188 -7.394531 16.140625 -8.9375 C 16.671875 -10.476562 16.9375 -12.078125 16.9375 -13.734375 Z M 16.9375 -13.734375 "/></g></g></g><g fill="#516beb" fill-opacity="1"><g transform="translate(189.354883, 240.609726)"><g><path d="M 7.171875 -9.53125 C 7.078125 -9.019531 7.03125 -8.425781 7.03125 -7.75 C 7.03125 -6.332031 7.335938 -5.242188 7.953125 -4.484375 C 8.578125 -3.734375 9.492188 -3.359375 10.703125 -3.359375 C 12.671875 -3.359375 14.09375 -4.488281 14.96875 -6.75 L 19.875 -5.265625 C 18.875 -3.140625 17.632812 -1.660156 16.15625 -0.828125 C 14.675781 -0.00390625 12.734375 0.40625 10.328125 0.40625 C 7.484375 0.40625 5.257812 -0.363281 3.65625 -1.90625 C 2.0625 -3.445312 1.265625 -5.601562 1.265625 -8.375 C 1.265625 -11.132812 1.742188 -13.550781 2.703125 -15.625 C 3.660156 -17.695312 5.023438 -19.285156 6.796875 -20.390625 C 8.566406 -21.503906 10.613281 -22.0625 12.9375 -22.0625 C 15.71875 -22.0625 17.863281 -21.34375 19.375 -19.90625 C 20.894531 -18.46875 21.65625 -16.441406 21.65625 -13.828125 C 21.65625 -12.515625 21.5 -11.082031 21.1875 -9.53125 Z M 16.453125 -13.265625 L 16.515625 -14.390625 C 16.515625 -15.816406 16.179688 -16.859375 15.515625 -17.515625 C 14.859375 -18.171875 14 -18.5 12.9375 -18.5 C 11.65625 -18.5 10.578125 -18.050781 9.703125 -17.15625 C 8.828125 -16.269531 8.203125 -14.972656 7.828125 -13.265625 Z M 16.453125 -13.265625 "/></g></g></g><g fill="#516beb" fill-opacity="1"><g transform="translate(212.152783, 240.609726)"><g><path d="M 14.78125 0 L 17.140625 -11.90625 C 17.484375 -13.5625 17.65625 -14.664062 17.65625 -15.21875 C 17.65625 -16.9375 16.640625 -17.796875 14.609375 -17.796875 C 13.265625 -17.796875 12.019531 -17.25 10.875 -16.15625 C 9.726562 -15.0625 9.003906 -13.71875 8.703125 -12.125 L 6.34375 0 L 0.703125 0 L 4.03125 -17.03125 C 4.238281 -18.09375 4.488281 -19.632812 4.78125 -21.65625 L 10.15625 -21.65625 C 10.15625 -21.539062 10.085938 -20.984375 9.953125 -19.984375 C 9.828125 -18.984375 9.734375 -18.304688 9.671875 -17.953125 L 9.734375 -17.953125 C 10.734375 -19.347656 11.835938 -20.378906 13.046875 -21.046875 C 14.253906 -21.710938 15.640625 -22.046875 17.203125 -22.046875 C 19.222656 -22.046875 20.75 -21.554688 21.78125 -20.578125 C 22.8125 -19.609375 23.328125 -18.203125 23.328125 -16.359375 C 23.328125 -16.023438 23.28125 -15.492188 23.1875 -14.765625 C 23.09375 -14.035156 23 -13.472656 22.90625 -13.078125 L 20.359375 0 Z M 14.78125 0 "/></g></g></g><g fill="#516beb" fill-opacity="1"><g transform="translate(237.192443, 240.609726)"><g><path d="M 5.640625 -25.5625 L 6.46875 -29.703125 L 12.09375 -29.703125 L 11.265625 -25.5625 Z M 0.703125 0 L 4.90625 -21.65625 L 10.53125 -21.65625 L 6.3125 0 Z M 0.703125 0 "/></g></g></g><g fill="#516beb" fill-opacity="1"><g transform="translate(248.581385, 240.609726)"><g><path d="M 10.25 -21.65625 L 7.890625 -9.75 C 7.546875 -8.101562 7.375 -7.003906 7.375 -6.453125 C 7.375 -4.722656 8.382812 -3.859375 10.40625 -3.859375 C 11.757812 -3.859375 13.003906 -4.398438 14.140625 -5.484375 C 15.285156 -6.566406 16.007812 -7.914062 16.3125 -9.53125 L 18.671875 -21.65625 L 24.328125 -21.65625 L 21 -4.625 C 20.789062 -3.570312 20.535156 -2.03125 20.234375 0 L 14.875 0 C 14.875 -0.125 14.9375 -0.6875 15.0625 -1.6875 C 15.1875 -2.6875 15.285156 -3.359375 15.359375 -3.703125 L 15.296875 -3.703125 C 14.285156 -2.273438 13.175781 -1.238281 11.96875 -0.59375 C 10.757812 0.0507812 9.378906 0.375 7.828125 0.375 C 5.796875 0.375 4.265625 -0.109375 3.234375 -1.078125 C 2.210938 -2.054688 1.703125 -3.46875 1.703125 -5.3125 C 1.703125 -5.644531 1.75 -6.179688 1.84375 -6.921875 C 1.9375 -7.660156 2.03125 -8.21875 2.125 -8.59375 L 4.671875 -21.65625 Z M 10.25 -21.65625 "/></g></g></g><g fill="#516beb" fill-opacity="1"><g transform="translate(273.621044, 240.609726)"><g><path d="M 20.015625 -6.6875 C 20.015625 -4.363281 19.15625 -2.597656 17.4375 -1.390625 C 15.726562 -0.191406 13.234375 0.40625 9.953125 0.40625 C 7.265625 0.40625 5.144531 -0.0664062 3.59375 -1.015625 C 2.050781 -1.960938 1.003906 -3.429688 0.453125 -5.421875 L 5.484375 -6.140625 C 5.765625 -5.140625 6.273438 -4.421875 7.015625 -3.984375 C 7.765625 -3.546875 8.875 -3.328125 10.34375 -3.328125 C 11.800781 -3.328125 12.90625 -3.554688 13.65625 -4.015625 C 14.414062 -4.484375 14.796875 -5.160156 14.796875 -6.046875 C 14.796875 -6.742188 14.519531 -7.273438 13.96875 -7.640625 C 13.414062 -8.003906 12.195312 -8.382812 10.3125 -8.78125 C 7.65625 -9.382812 5.78125 -10.21875 4.6875 -11.28125 C 3.601562 -12.34375 3.0625 -13.710938 3.0625 -15.390625 C 3.0625 -17.523438 3.898438 -19.160156 5.578125 -20.296875 C 7.253906 -21.429688 9.644531 -22 12.75 -22 C 15.5 -22 17.546875 -21.523438 18.890625 -20.578125 C 20.242188 -19.640625 21.082031 -18.191406 21.40625 -16.234375 L 16.375 -15.65625 C 16.144531 -16.570312 15.703125 -17.238281 15.046875 -17.65625 C 14.398438 -18.070312 13.507812 -18.28125 12.375 -18.28125 C 9.632812 -18.28125 8.265625 -17.476562 8.265625 -15.875 C 8.265625 -15.4375 8.394531 -15.066406 8.65625 -14.765625 C 8.925781 -14.472656 9.304688 -14.21875 9.796875 -14 C 10.296875 -13.789062 11.488281 -13.46875 13.375 -13.03125 C 15.800781 -12.488281 17.515625 -11.707031 18.515625 -10.6875 C 19.515625 -9.675781 20.015625 -8.34375 20.015625 -6.6875 Z M 20.015625 -6.6875 "/></g></g></g><g fill="#000000" fill-opacity="1"><g transform="translate(93.707332, 247.409763)"><g><path d="M 9.40625 -13.4375 C 9.40625 -10.726562 10.070312 -8.632812 11.40625 -7.15625 C 12.738281 -5.6875 14.648438 -4.953125 17.140625 -4.953125 C 21.296875 -4.953125 24.5625 -6.96875 26.9375 -11 L 32.25 -8.25 C 28.96875 -2.4375 23.773438 0.46875 16.671875 0.46875 C 13.679688 0.46875 11.101562 -0.09375 8.9375 -1.21875 C 6.78125 -2.34375 5.140625 -3.945312 4.015625 -6.03125 C 2.898438 -8.125 2.34375 -10.5625 2.34375 -13.34375 C 2.34375 -17.28125 3.160156 -20.796875 4.796875 -23.890625 C 6.441406 -26.992188 8.738281 -29.375 11.6875 -31.03125 C 14.632812 -32.6875 17.984375 -33.515625 21.734375 -33.515625 C 25.328125 -33.515625 28.273438 -32.742188 30.578125 -31.203125 C 32.878906 -29.671875 34.429688 -27.378906 35.234375 -24.328125 L 28.8125 -22.671875 C 28.351562 -24.335938 27.484375 -25.65625 26.203125 -26.625 C 24.921875 -27.59375 23.359375 -28.078125 21.515625 -28.078125 C 17.734375 -28.078125 14.769531 -26.765625 12.625 -24.140625 C 10.476562 -21.515625 9.40625 -17.945312 9.40625 -13.4375 Z M 9.40625 -13.4375 "/></g></g><g transform="translate(128.371392, 247.409763)"><g><path d="M 17.28125 0 L 9.328125 0 L 4.015625 -33.03125 L 11.15625 -33.03125 L 13.828125 -11.8125 C 14.078125 -9.519531 14.25 -7.441406 14.34375 -5.578125 C 15.082031 -7.234375 15.671875 -8.535156 16.109375 -9.484375 C 16.554688 -10.441406 20.570312 -18.289062 28.15625 -33.03125 L 35.375 -33.03125 Z M 17.28125 0 "/></g></g></g></svg>